<?xml version="1.0" encoding="UTF-8"?>
<svg width="117px" height="30px" viewBox="0 0 117 30" version="1.1" xmlns="http://www.w3.org/2000/svg" xmlns:xlink="http://www.w3.org/1999/xlink">
    <!-- Generator: Sketch 63.1 (92452) - https://sketch.com -->
    <title>编组 4</title>
    <desc>Created with Sketch.</desc>
    <g id="页面-1" stroke="none" stroke-width="1" fill="none" fill-rule="evenodd">
        <g id="画板" transform="translate(0.000000, -46.000000)">
            <g id="编组-4" transform="translate(0.000000, 46.000000)">
                <rect id="矩形" fill="#1A1A1A" x="0" y="-1.77635684e-15" width="117" height="29.3"></rect>
                <text id="Capo-App" font-family="Arial-BoldMT, Arial" font-size="10" font-weight="bold" fill="#FFFFFF">
                    <tspan x="46" y="18">Capo App</tspan>
                </text>
                <g id="编组-2" transform="translate(24.000000, 7.000000)">
                    <g id="编组-3">
                        <rect id="矩形" fill="#FFFFFF" x="0" y="0" width="17" height="17" rx="8.5"></rect>
                        <g id="编组" transform="translate(8.500000, 9.000000) rotate(-8.000000) translate(-8.500000, -9.000000) translate(2.000000, 3.000000)" fill="#1A1A1A">
                            <path d="M9.95264188,1.62004198 C11.3136304,1.62004118 12.0583654,1.56733528 12.0588395,1.56016677 C12.0591346,1.55570596 12.062557,1.54798343 12.0691068,1.53699917 C12.2557321,1.24533177 12.2809771,1.03973639 12.1448415,0.920213047 C11.7568352,0.579553814 10.6135507,0.346622563 9.43371738,0.346622563 C6.73256852,0.346622563 4.61799175,0.826342026 4.61799175,1.20078346 C4.61799175,1.39383439 4.93733958,1.77035392 5.87144752,1.89383048 C6.74913468,2.00984898 7.25149301,1.62004358 9.95264188,1.62004198 Z" id="椭圆形" transform="translate(8.424482, 1.131011) rotate(1.000000) translate(-8.424482, -1.131011) "></path>
                            <path d="M11.2830392,4.19890985 C11.1714149,3.59964984 11.0114634,3.64993445 10.7879966,3.67695699 C10.7159029,3.68567488 8.35109601,4.44320737 7.20414608,4.05607749 C6.56814411,3.84140781 6.33407732,2.54412223 6.33407759,2.59092025 C6.33407792,2.64769813 6.21324129,4.66396938 6.40267926,5.30423023 C6.65342242,5.33558597 7.14902124,5.28689191 7.59171692,5.1977089 C8.92519466,4.92907391 11.3946635,4.79816985 11.2830392,4.19890985 Z" id="椭圆形" transform="translate(8.791401, 3.951724) rotate(-10.000000) translate(-8.791401, -3.951724) "></path>
                            <path d="M8.76778403,6.14561322 C8.76778403,6.14158704 8.0919631,4.43095653 6.54417712,4.41558093 C3.54480561,4.38578538 -1.6349584,5.56677226 -2.27444133,6.21182764 C-2.32471288,6.26253726 -2.24004219,6.43592692 -2.23236482,6.47747373 C-2.22499538,6.51735412 -2.15034053,6.55087827 -2.07444464,6.5707829 C-1.93450645,6.60748339 3.22977502,5.83307015 6.34000471,5.69218227 C6.62512836,5.67926667 7.33073295,6.04818371 7.36824457,6.11093909 C7.95686237,7.09567226 8.76778403,6.16027414 8.76778403,6.14561322 Z" id="椭圆形" transform="translate(3.238745, 5.493537) rotate(-66.000000) translate(-3.238745, -5.493537) "></path>
                            <path d="M5.91743178,1.3477768 C5.75841838,1.1114447 5.29912043,1.21533856 5.20782314,1.25568153 C5.05287249,1.324152 5.33257425,4.48391624 6.18320577,6.8146101 C7.06915446,9.2420715 8.16723765,11.4329681 8.6612504,11.8909275 C8.74726328,11.9706631 9.06224142,11.7073132 9.08916932,11.6954141 C9.28416462,11.6092485 7.88470936,8.80759854 6.98452424,6.01682533 C6.29465169,3.87806766 6.10148901,1.62133004 5.91743178,1.3477768 Z" id="椭圆形"></path>
                        </g>
                    </g>
                </g>
            </g>
        </g>
    </g>
</svg>