<?xml version="1.0" encoding="UTF-8"?>
<svg width="117px" height="30px" viewBox="0 0 117 30" version="1.1" xmlns="http://www.w3.org/2000/svg" xmlns:xlink="http://www.w3.org/1999/xlink">
    <!-- Generator: Sketch 63.1 (92452) - https://sketch.com -->
    <title>编组 4</title>
    <desc>Created with Sketch.</desc>
    <g id="页面-1" stroke="none" stroke-width="1" fill="none" fill-rule="evenodd">
        <g id="画板" transform="translate(0.000000, -33.000000)">
            <g id="编组-4" transform="translate(0.000000, 33.000000)">
                <rect id="矩形" fill="#FFFFFF" x="0" y="-1.77635684e-15" width="117" height="29.3"></rect>
                <text id="Capo-App" font-family="Arial-BoldMT, Arial" font-size="10" font-weight="bold" fill="#1A1A1A">
                    <tspan x="46" y="18">Capo App</tspan>
                </text>
                <g id="编组-2" transform="translate(24.000000, 7.000000)">
                    <g id="编组-3">
                        <rect id="矩形" fill="#1A1A1A" x="0" y="0" width="17" height="17" rx="8.5"></rect>
                        <g id="编组" transform="translate(8.000000, 8.615385) rotate(-8.000000) translate(-8.000000, -8.615385) translate(3.000000, 4.000000)" fill="#F8F9FA">
                            <path d="M7.65587837,1.24618614 C8.70279261,1.24618552 9.27566571,1.20564252 9.27603041,1.20012829 C9.27625736,1.19669689 9.27888999,1.19075648 9.28392832,1.18230706 C9.42748626,0.957947516 9.44690543,0.799797226 9.34218581,0.70785619 C9.04371939,0.445810626 8.16426974,0.266632741 7.25670568,0.266632741 C5.17889886,0.266632741 3.55230135,0.635647712 3.55230135,0.923679587 C3.55230135,1.0721803 3.79795352,1.3618107 4.51649809,1.45679268 C5.19164206,1.54603767 5.57807154,1.24618737 7.65587837,1.24618614 Z" id="椭圆形" transform="translate(6.480370, 0.870009) rotate(1.000000) translate(-6.480370, -0.870009) "></path>
                            <path d="M8.67926091,3.22993065 C8.59339606,2.76896142 8.47035643,2.80764188 8.29845896,2.82842845 C8.2430022,2.83513452 6.42392001,3.41785182 5.54165083,3.12005961 C5.05241855,2.95492909 4.87236717,1.9570171 4.87236738,1.99301558 C4.87236763,2.03669087 4.77941638,3.58766875 4.92513789,4.0801771 C5.11801725,4.1042969 5.49924711,4.06683993 5.83978224,3.99823762 C6.86553436,3.79159531 8.76512576,3.69089989 8.67926091,3.22993065 Z" id="椭圆形" transform="translate(6.762617, 3.039788) rotate(-10.000000) translate(-6.762617, -3.039788) "></path>
                            <path d="M6.74444925,4.72739479 C6.74444925,4.72429773 6.224587,3.4084281 5.0339824,3.39660071 C2.72677355,3.37368107 -1.25766031,4.28213251 -1.74957025,4.77832895 C-1.78824068,4.81733635 -1.72310938,4.95071301 -1.71720371,4.9826721 C-1.71153491,5.01334932 -1.6541081,5.03913713 -1.59572664,5.05444838 C-1.48808189,5.08267953 2.48444232,4.48697704 4.8769267,4.37860174 C5.09625258,4.36866667 5.63902534,4.65244901 5.66788044,4.70072238 C6.12066336,5.45820943 6.74444925,4.73867241 6.74444925,4.72739479 Z" id="椭圆形" transform="translate(2.491342, 4.225797) rotate(-66.000000) translate(-2.491342, -4.225797) "></path>
                            <path d="M4.5518706,1.03675139 C4.4295526,0.854957459 4.07624649,0.934875818 4.0060178,0.965908867 C3.88682499,1.01857846 4.10198019,3.44916634 4.75631213,5.24200777 C5.43781112,7.10928577 6.2824905,8.79459087 6.66250031,9.14686734 C6.72866407,9.20820242 6.97095494,9.00562552 6.99166871,8.9964724 C7.14166509,8.93019115 6.06516105,6.7750758 5.37271095,4.62832717 C4.84203976,2.98312897 4.69345308,1.24717696 4.5518706,1.03675139 Z" id="椭圆形"></path>
                        </g>
                    </g>
                </g>
            </g>
        </g>
    </g>
</svg>